HIERARCHY
ROOT hip
{
	OFFSET 0.000000 0.000000 0.000000 
	CHANNELS 6 Xposition Yposition Zposition Xrotation Zrotation Yrotation
	JOINT abdomen
	{
		OFFSET 0.000000 3.402643 0.000000 
		CHANNELS 3 Xrotation Zrotation Yrotation
		JOINT chest
		{
			OFFSET 0.000000 8.438565 -0.680529 
			CHANNELS 3 Xrotation Zrotation Yrotation
			JOINT neck
			{
				OFFSET 0.000000 10.207942 -0.272212 
				CHANNELS 3 Xrotation Zrotation Yrotation
				JOINT head
				{
					OFFSET 0.000000 3.130431 0.000000 
					CHANNELS 3 Xrotation Zrotation Yrotation
					End Site
					{
						OFFSET 0.000000 3.130435 0.000000 
					}
				}
			}
			JOINT lCollar
			{
				OFFSET 3.470700 6.669187 -0.816635 
				CHANNELS 3 Yrotation Zrotation Xrotation
				JOINT lShldr
				{
					OFFSET 3.198488 0.000000 0.000000 
					CHANNELS 3 Zrotation Yrotation Xrotation
					JOINT lForeArm
					{
						OFFSET 10.139888 0.000000 0.000000 
						CHANNELS 3 Yrotation Zrotation Xrotation
						JOINT lHand
						{
							OFFSET 8.370511 0.000000 0.000000 
							CHANNELS 3 Zrotation Yrotation Xrotation
							End Site
							{
								OFFSET 4.083176 0.000000 0.000000 
							}
						}
					}
				}
			}
			JOINT rCollar
			{
				OFFSET -3.470700 6.669187 -0.816635 
				CHANNELS 3 Yrotation Zrotation Xrotation
				JOINT rShldr
				{
					OFFSET -3.198488 0.000000 0.000000 
					CHANNELS 3 Zrotation Yrotation Xrotation
					JOINT rForeArm
					{
						OFFSET -10.139888 0.000000 0.000000 
						CHANNELS 3 Yrotation Zrotation Xrotation
						JOINT rHand
						{
							OFFSET -8.370511 0.000000 0.000000 
							CHANNELS 3 Zrotation Yrotation Xrotation
							End Site
							{
								OFFSET -4.083176 0.000000 0.000000 
							}
						}
					}
				}
			}
		}
	}
	JOINT lThigh
	{
		OFFSET 5.308129 -1.633274 1.361059 
		CHANNELS 3 Xrotation Zrotation Yrotation
		JOINT lShin
		{
			OFFSET -2.041588 -20.007561 0.000000 
			CHANNELS 3 Xrotation Zrotation Yrotation
			JOINT lFoot
			{
				OFFSET 0.000000 -19.190928 -1.224953 
				CHANNELS 3 Xrotation Yrotation Zrotation
				End Site
				{
					OFFSET 0.000000 -2.449906 4.627600 
				}
			}
		}
	}
	JOINT rThigh
	{
		OFFSET -5.308129 -1.633274 1.361059 
		CHANNELS 3 Xrotation Zrotation Yrotation
		JOINT rShin
		{
			OFFSET 2.041588 -20.007561 0.000000 
			CHANNELS 3 Xrotation Zrotation Yrotation
			JOINT rFoot
			{
				OFFSET 0.000000 -19.190928 -1.224953 
				CHANNELS 3 Xrotation Yrotation Zrotation
				End Site
				{
					OFFSET 0.000000 -2.449906 4.627600 
				}
			}
		}
	}
}
MOTION
Frames: 8
Frame Time: 0.016667
-0.828012 43.508675 -2.540653 1.530320 -10.660300 -4.580560 -15.433600 -0.188836 -4.247050 25.259600 -4.642590 -2.051760 -2.419560 19.187201 -21.145100 7.967140 12.239200 -9.171670 2.000000 -2.000000 0.000000 -82.683403 -6.415310 167.934006 19.170099 -0.343983 0.044955 0.049829 -0.040495 -151.541000 -2.000000 2.000000 0.000000 -91.914497 177.300995 -5.472090 -27.031500 0.336629 0.062138 -0.055765 0.020888 -144.401993 -10.830445 9.739348 2.602293 38.279922 2.939929 2.606671 -26.423269 17.683960 7.096132 -16.191198 13.216786 1.801497 31.569998 -2.157290 -2.571737 -13.108444 0.885999 -0.404945 
-1.009972 43.508156 -2.449188 1.510890 -10.748300 -4.198370 -15.451500 -0.134172 -4.323150 25.230600 -4.701180 -2.073680 -2.500970 19.117599 -21.177401 7.936670 12.210500 -9.179830 2.000000 -2.000000 0.000000 -82.761398 -6.308020 167.875000 19.453300 -0.343759 0.045593 0.049933 -0.040892 -151.686996 -2.000000 2.000000 0.000000 -91.963203 177.117004 -5.022430 -27.402599 0.336224 0.062925 -0.055844 0.021485 -144.617004 -10.901667 10.088901 2.551428 38.437252 2.935151 2.612569 -26.249315 17.457302 6.939202 -16.010456 13.437323 1.547006 31.453529 -2.142179 -2.570160 -13.238059 0.828333 -0.412130 
-1.190414 43.506088 -2.358519 1.481310 -10.797300 -3.823060 -15.479700 -0.082159 -4.378660 25.201599 -4.759780 -2.095540 -2.623140 19.076000 -21.233101 7.896550 12.201400 -9.198500 2.000000 -2.000000 0.000000 -82.839500 -6.210440 167.845993 19.726801 -0.343541 0.046207 0.050031 -0.041262 -151.824005 -2.000000 2.000000 0.000000 -92.031502 176.951996 -4.582580 -27.754200 0.335836 0.063669 -0.055934 0.022135 -144.850998 -10.960830 10.402980 2.510896 38.633354 2.942569 2.632184 -26.120132 17.199183 6.772064 -15.872507 13.634541 1.297327 31.384497 -2.144820 -2.562723 -13.384998 0.824566 -0.424104 
-1.366269 43.503899 -2.274187 1.471460 -10.816800 -3.460390 -15.518000 -0.045635 -4.420120 25.172501 -4.808650 -2.106800 -2.736100 19.054501 -21.278999 7.846760 12.211900 -9.217950 2.000000 -2.000000 0.000000 -82.907799 -6.132470 167.776993 19.980700 -0.343335 0.046777 0.050130 -0.041632 -151.960999 -2.000000 2.000000 0.000000 -92.089996 176.787003 -4.113440 -28.086201 0.335465 0.064369 -0.056037 0.022866 -145.115005 -11.133665 10.675295 2.507387 38.869148 2.941435 2.647731 -25.930023 16.921280 6.592380 -15.751618 13.780068 1.069822 31.307575 -2.135786 -2.581337 -13.531698 0.823087 -0.423986 
-1.538349 43.501583 -2.195191 1.481310 -10.797300 -3.119930 -15.547000 -0.011627 -4.440480 25.143499 -4.867250 -2.109010 -2.856840 19.031401 -21.354900 7.806800 12.212500 -9.245740 2.000000 -2.000000 0.000000 -82.966400 -6.093540 167.718994 20.205299 -0.343151 0.047281 0.050244 -0.042055 -152.117004 -2.000000 2.000000 0.000000 -92.167999 176.612000 -3.644270 -28.408501 0.335101 0.065046 -0.056140 0.023570 -145.369003 -11.257699 10.917736 2.575777 39.025791 2.947359 2.657242 -25.716145 16.591339 6.418788 -15.682919 13.880400 0.815097 31.278038 -2.132519 -2.571356 -13.678273 0.818530 -0.403578 
-1.706529 43.500687 -2.121756 1.500900 -10.738600 -2.790050 -15.586000 0.006901 -4.446740 25.124300 -4.925790 -2.112010 -2.956310 19.018000 -21.432899 7.776980 12.222700 -9.280620 2.000000 -2.000000 0.000000 -83.005402 -6.093640 167.679001 20.400600 -0.342989 0.047718 0.050352 -0.042450 -152.264008 -2.000000 2.000000 0.000000 -92.246002 176.447998 -3.164760 -28.721001 0.334744 0.065701 -0.056234 0.024192 -145.593994 -11.414017 11.151932 2.661486 39.193737 2.935295 2.670072 -25.479271 16.267948 6.225266 -15.643518 13.948377 0.576501 31.249571 -2.124264 -2.579637 -13.834496 0.819734 -0.391026 
-1.870465 43.501583 -2.053724 1.540310 -10.670100 -2.473250 -15.625600 0.022855 -4.432120 25.105101 -4.974600 -2.104430 -3.044810 19.014000 -21.517099 7.747170 12.233000 -9.325260 2.000000 -2.000000 0.000000 -83.034698 -6.142460 167.679993 20.566601 -0.342850 0.048089 0.050454 -0.042819 -152.399994 -2.000000 2.000000 0.000000 -92.324097 176.272995 -2.695560 -29.004200 0.334418 0.066293 -0.056321 0.024759 -145.798996 -11.577518 11.361949 2.766324 39.341297 2.929592 2.675815 -25.235800 15.905839 6.039844 -15.612595 14.006987 0.336691 31.190636 -2.121940 -2.570516 -13.933407 0.795223 -0.414268 
-2.029188 43.504158 -1.991477 1.589590 -10.591700 -2.167660 -15.665200 0.048208 -4.420140 25.095501 -5.013610 -2.087130 -3.121170 18.999599 -21.616400 7.727340 12.243000 -9.367850 2.000000 -2.000000 0.000000 -83.054298 -6.210780 167.699005 20.722900 -0.342719 0.048437 0.050542 -0.043136 -152.516998 -2.000000 2.000000 0.000000 -92.431396 176.098007 -2.216600 -29.258101 0.334123 0.066822 -0.056394 0.025218 -145.964996 -11.830471 11.563545 2.878199 39.606812 2.922203 2.688771 -25.020313 15.532839 5.809399 -15.627399 14.045359 0.108022 31.182003 -2.115832 -2.588824 -14.062238 0.747027 -0.427981 
